<svg width="213" height="6" viewBox="0 0 213 6" fill="none" xmlns="http://www.w3.org/2000/svg">
<path d="M1 3C3.7 5.66667 6.4 5.66667 9.1 3C11.8 0.333333 14.5 0.333333 17.2 3C19.9 5.66667 22.6 5.66667 25.3 3C28 0.333333 30.7 0.333333 33.4 3C36.1 5.66667 38.8 5.66667 41.5 3C44.2 0.333333 46.9 0.333333 49.6 3C52.3 5.66667 55 5.66667 57.7 3C60.4 0.333333 63.1 0.333333 65.8 3C68.5 5.66667 71.2 5.66667 73.9 3C76.6 0.333333 79.3 0.333333 82 3C84.7 5.66667 87.4 5.66667 90.1 3C92.8 0.333333 95.5 0.333333 98.2 3C100.9 5.66667 103.6 5.66667 106.3 3C109 0.333333 111.7 0.333333 114.4 3" stroke="#FED152" stroke-width="2"/>
<path d="M98 3C100.7 5.66667 103.4 5.66667 106.1 3C108.8 0.333333 111.5 0.333333 114.2 3C116.9 5.66667 119.6 5.66667 122.3 3C125 0.333333 127.7 0.333333 130.4 3C133.1 5.66667 135.8 5.66667 138.5 3C141.2 0.333333 143.9 0.333333 146.6 3C149.3 5.66667 152 5.66667 154.7 3C157.4 0.333333 160.1 0.333333 162.8 3C165.5 5.66667 168.2 5.66667 170.9 3C173.6 0.333333 176.3 0.333333 179 3C181.7 5.66667 184.4 5.66667 187.1 3C189.8 0.333333 192.5 0.333333 195.2 3C197.9 5.66667 200.6 5.66667 203.3 3C206 0.333333 208.7 0.333333 211.4 3" stroke="#FED152" stroke-width="2"/>
</svg>
